<?xml version="1.0" encoding="UTF-8" standalone="no"?>
<!DOCTYPE svg PUBLIC "-//W3C//DTD SVG 1.1//EN"
 "http://www.w3.org/Graphics/SVG/1.1/DTD/svg11.dtd">
<!-- Generated by graphviz version 2.43.0 (0)
 -->
<!-- Title: %3 Pages: 1 -->
<svg width="134pt" height="260pt"
 viewBox="0.00 0.00 134.00 260.00" xmlns="http://www.w3.org/2000/svg" xmlns:xlink="http://www.w3.org/1999/xlink">
<g id="graph0" class="graph" transform="scale(1 1) rotate(0) translate(4 256)">
<title>%3</title>
<polygon fill="white" stroke="transparent" points="-4,4 -4,-256 130,-256 130,4 -4,4"/>
<!-- P -->
<g id="node1" class="node">
<title>P</title>
<text text-anchor="start" x="22.5" y="-15.3" font-family="monospace" font-weight="bold" font-size="14.00" fill="darkmagenta">P</text>
</g>
<!-- Join -->
<g id="node3" class="node">
<title>Join</title>
<text text-anchor="start" x="58.5" y="-86.3" font-family="monospace" font-size="14.00">⋈</text>
</g>
<!-- P&#45;&gt;Join -->
<g id="edge1" class="edge">
<title>P&#45;&gt;Join</title>
<path fill="none" stroke="black" d="M35.9,-36.3C40,-44.27 44.95,-53.9 49.49,-62.74"/>
<polygon fill="black" stroke="black" points="46.52,-64.6 54.2,-71.9 52.74,-61.4 46.52,-64.6"/>
</g>
<!-- PT -->
<g id="node2" class="node">
<title>PT</title>
<text text-anchor="start" x="90.5" y="-15.3" font-family="monospace" font-weight="bold" font-size="14.00" fill="darkmagenta">PT</text>
</g>
<!-- PT&#45;&gt;Join -->
<g id="edge2" class="edge">
<title>PT&#45;&gt;Join</title>
<path fill="none" stroke="black" d="M90.1,-36.3C86,-44.27 81.05,-53.9 76.51,-62.74"/>
<polygon fill="black" stroke="black" points="73.26,-61.4 71.8,-71.9 79.48,-64.6 73.26,-61.4"/>
</g>
<!-- Select -->
<g id="node4" class="node">
<title>Select</title>
<text text-anchor="start" x="24" y="-159.3" font-family="monospace" font-size="14.00">σ</text>
<text text-anchor="start" x="33" y="-159.3" font-family="monospace" font-weight="bold" baseline-shift="sub" font-size="14.00" fill="darkmagenta">Type</text>
<text text-anchor="start" x="61" y="-159.3" font-family="monospace" baseline-shift="sub" font-size="14.00"> = Feu</text>
</g>
<!-- Join&#45;&gt;Select -->
<g id="edge3" class="edge">
<title>Join&#45;&gt;Select</title>
<path fill="none" stroke="black" d="M63,-108.3C63,-116.02 63,-125.29 63,-133.89"/>
<polygon fill="black" stroke="black" points="59.5,-133.9 63,-143.9 66.5,-133.9 59.5,-133.9"/>
</g>
<!-- Project -->
<g id="node5" class="node">
<title>Project</title>
<text text-anchor="middle" x="63" y="-230.3" font-family="monospace" font-size="14.00">Project</text>
</g>
<!-- Select&#45;&gt;Project -->
<g id="edge4" class="edge">
<title>Select&#45;&gt;Project</title>
<path fill="none" stroke="black" d="M63,-180.3C63,-188.02 63,-197.29 63,-205.89"/>
<polygon fill="black" stroke="black" points="59.5,-205.9 63,-215.9 66.5,-205.9 59.5,-205.9"/>
</g>
</g>
</svg>
